<?xml version="1.0" encoding="UTF-8" standalone="no"?>
<!-- Created with Inkscape (http://www.inkscape.org/) -->

<svg
   version="1.1"
   id="svg1"
   width="748"
   height="776"
   viewBox="0 0 748 776"
   sodipodi:docname="devil.svg"
   inkscape:export-filename="devil3.png"
   inkscape:export-xdpi="96"
   inkscape:export-ydpi="96"
   inkscape:version="1.4 (86a8ad7, 2024-10-11)"
   xmlns:inkscape="http://www.inkscape.org/namespaces/inkscape"
   xmlns:sodipodi="http://sodipodi.sourceforge.net/DTD/sodipodi-0.dtd"
   xmlns="http://www.w3.org/2000/svg"
   xmlns:svg="http://www.w3.org/2000/svg">
  <defs
     id="defs1" />
  <sodipodi:namedview
     id="namedview1"
     pagecolor="#ffffff"
     bordercolor="#000000"
     borderopacity="0.25"
     inkscape:showpageshadow="2"
     inkscape:pageopacity="0.0"
     inkscape:pagecheckerboard="0"
     inkscape:deskcolor="#d1d1d1"
     inkscape:zoom="0.39794922"
     inkscape:cx="434.72883"
     inkscape:cy="311.59755"
     inkscape:window-width="1274"
     inkscape:window-height="1040"
     inkscape:window-x="714"
     inkscape:window-y="12"
     inkscape:window-maximized="0"
     inkscape:current-layer="g1" />
  <g
     inkscape:groupmode="layer"
     inkscape:label="Image"
     id="g1">
    <path
       style="fill:#ffffff;stroke:#000000;stroke-width:0.1;stroke-dasharray:none"
       d="m 354.17546,768.37608 c -28.90006,-1.61546 -60.57001,-7.8825 -90,-17.80975 -50.98166,-17.197 -98.47962,-48.13097 -133.82938,-87.15896 -39.63338,-43.75733 -63.5951,-87.72227 -77.66521,-142.5 -7.8099,-30.40551 -11.1131,-60.51112 -10.19175,-92.8885 0.94875,-33.34039 6.2983,-62.91412 17.0237,-94.1115 4.21868,-12.27104 10.90921,-28.96314 12.05491,-30.0756 0.60925,-0.59158 4.25773,-2.35181 8.10773,-3.91162 21.65127,-8.77192 47.52078,-23.32635 65.44608,-36.82056 12.62748,-9.50601 36.64248,-33.52097 46.92479,-46.92473 15.03168,-19.59492 31.58362,-47.68297 36.02485,-61.13291 1.58411,-4.79735 2.11938,-5.34813 8.14987,-8.386 9.31756,-4.69374 34.4858,-13.9009 48.49206,-17.7396 29.24462,-8.01506 52.10584,-11.45922 80.96235,-12.1974 48.36605,-1.23725 94.25877,7.54726 139.08263,26.62239 12.08263,5.14185 12.08263,5.14185 15.37012,13.59333 9.27799,23.85188 32.12624,57.9928 54.12515,80.87632 12.79021,13.30453 23.61993,22.22733 41.34106,34.06165 12.24725,8.17882 42.16826,23.95145 54.21152,28.57718 6.13048,2.35468 6.13048,2.35468 10.42544,13.40611 22.5513,58.02704 29.26552,108.22983 22.00744,164.55144 -5.28599,41.01851 -15.14813,73.89811 -32.69425,109 -20.82621,41.66388 -51.17089,79.47077 -86.60121,107.8977 -34.28813,27.51052 -71.70607,47.20544 -112.15779,59.0342 -37.55808,10.98262 -79.95303,16.08586 -116.61011,14.03681 z"
       id="path8" />
    <path
       style="fill:#ffffff;stroke:#000000;stroke-width:0.1;stroke-dasharray:none"
       d="m 671.17546,256.01894 c -33.2671,-13.93523 -63.25391,-37.61805 -84.97564,-67.11157 -14.48443,-19.66681 -26.15258,-40.03973 -26.32028,-45.95597 -0.12299,-4.33886 1.37676,-6.04963 7.12469,-8.12712 36.15783,-13.06865 59.05612,-25.4194 80.17123,-43.242328 19.02823,-16.06142 33.08768,-35.14816 47.27153,-64.17459 4.97204,-10.175 9.53247,-18.8306104 10.13427,-19.2346904 2.08369,-1.3990695 5.25475,-0.7553295 7.31352,1.48469 3.63658,3.9567304 14.13156,26.4650204 18.70644,40.1191804 3.19102,9.52391 7.60247,28.48195 9.1275,39.22511 1.9933,14.041908 2.00986,40.653668 0.034,54.569468 -4.10816,28.93281 -15.07934,59.17988 -29.7348,81.97753 -4.76201,7.40765 -16.73188,22.49184 -22.7021,28.60872 -4.9201,5.04096 -7.77477,5.37 -16.15033,1.86157 z"
       id="path21" />
    <path
       style="fill:#ffffff;stroke:#000000;stroke-width:0.1;stroke-dasharray:none"
       d="m 61.07531,255.15737 c -1.7897,-1.7875 -6.61907,-7.47505 -10.73192,-12.63899 C 21.82366,206.71011 7.1754602,164.55668 7.1754602,118.29318 7.1754602,81.844982 14.06123,51.717272 29.43327,20.907362 35.43718,8.8738316 36.80069,7.2393721 40.53296,7.6020216 c 3.49529,0.33962 3.21256,-0.10276 11.62252,18.1850804 22.81582,49.61401 58.04306,81.735678 113.01998,103.056308 19.91981,7.72511 21.26736,8.46361 22.34413,12.24535 0.80634,2.83195 0.21897,4.47794 -5.34746,14.98531 -17.97414,33.92856 -42.22947,61.31788 -72.07122,81.38343 -15.82364,10.63979 -37.16803,20.94987 -43.37136,20.94987 -1.37381,0 -3.79177,-1.38981 -5.65424,-3.25 z"
       id="path20" />
    <path
       style="fill:#000000;stroke:#000000;stroke-width:0.1;stroke-dasharray:none"
       d="m 468.78709,421.65937 c 47.89642,-27.20501 109.30583,-61.15655 124.00585,-68.55936 7.06495,-3.55786 12.70245,-8.77373 14.44951,-13.36883 2.35646,-6.19796 0.30259,-16.15385 -4.36472,-21.15748 -5.99125,-6.42298 -17.2397,-8.79158 -25.1448,-5.29478 -2.63112,1.16387 -25.54542,13.7644 -50.92066,28.00118 -25.37525,14.23677 -56.71181,31.75815 -69.63681,38.93639 -31.21597,17.3366 -34.93508,19.7901 -37.42748,24.69088 -4.26304,8.38237 -1.64156,20.29461 5.69813,25.89287 5.04987,3.85171 7.7067,4.6357 14.34098,4.23176 5.71509,-0.34797 7.59671,-1.21563 29,-13.37263 z"
       id="path19" />
    <path
       style="fill:#000000;stroke:#000000;stroke-width:0.1;stroke-dasharray:none"
       d="m 316.67546,433.50752 c 4.67617,-2.16966 9.92945,-7.41218 11.43867,-11.41525 1.67643,-4.44661 1.27269,-12.35243 -0.84135,-16.47474 -3.36702,-6.56556 -0.74129,-4.8825 -52.59732,-33.71433 -22.39241,-12.45013 -30.85745,-17.19234 -79.5,-44.53672 -27.5,-15.45911 -27.5,-15.45911 -34,-15.45911 -5.32115,0 -7.36553,0.50877 -11.27239,2.80528 -11.71657,6.88715 -14.00265,21.22711 -4.90877,30.79131 2.26407,2.38116 9.64801,7.09641 19.18116,12.24875 22.97723,12.41839 44.95527,24.73551 89.45363,50.13235 21.97449,12.54165 42.22449,23.86045 45,25.15289 6.11099,2.84563 12.56348,3.01353 18.04637,0.46957 z"
       id="path18" />
    <path
       style="fill:#000000;stroke:#000000;stroke-width:0.1;stroke-dasharray:none"
       d="m 528.17546,506.89884 c 24.34688,-5.90265 46.21952,-27.12925 54.6043,-52.99147 6.26656,-19.32873 3.17649,-46.14404 -7.10833,-61.68545 -2.44424,-3.6935 -2.44424,-3.6935 -19.68402,5.7599 -9.48189,5.19936 -17.63297,9.84657 -18.11353,10.32713 -0.49831,0.49831 0.42873,2.67172 2.15754,5.05828 4.62322,6.38217 6.40894,12.89354 5.99441,21.85773 -0.4377,9.46533 -3.6362,16.59982 -10.53458,23.4982 -19.8667,19.8667 -52.77966,12.52946 -61.65166,-13.74393 -0.91527,-2.71048 -1.66413,-5.97298 -1.66413,-7.25 0,-1.27702 -0.3375,-2.31752 -0.75,-2.31221 -0.4125,0.005 -8.625,4.21148 -18.25,9.34705 -19.61659,10.46675 -18.80034,9.40495 -14.71642,19.1433 3.71431,8.857 9.55861,17.08386 17.58119,24.74859 11.19025,10.69111 23.57241,17.051 38.37278,19.70956 7.11888,1.27875 25.7825,0.46798 33.76245,-1.46668 z"
       id="path17" />
    <path
       style="fill:#000000;stroke:#000000;stroke-width:0.1;stroke-dasharray:none"
       d="m 261.6881,506.19432 c 15.99916,-4.69102 30.55714,-15.63197 40.41894,-30.37659 4.56094,-6.81917 9.06842,-16.69695 9.06842,-19.87272 0,-0.76304 -3.9375,-3.6066 -8.75,-6.31904 -11.38528,-6.41701 -25.93357,-14.2186 -26.51463,-14.2186 -0.25124,0 -0.71911,2.21492 -1.03973,4.92205 -2.20758,18.63956 -23.73729,33.10126 -43.27538,29.06845 -7.87736,-1.62594 -12.71073,-4.20623 -18.97272,-10.12856 -7.70914,-7.29098 -10.90354,-14.92186 -10.82617,-25.86194 0.0681,-9.62759 1.8437,-15.48712 6.42367,-21.19805 2.96571,-3.69805 2.96571,-3.69805 -3.28966,-7.11896 -21.22589,-11.60792 -30.71387,-16.68299 -31.18927,-16.68299 -1.07733,0 -7.39107,13.67588 -9.69505,21 -2.04143,6.48946 -2.352,9.4537 -2.30502,22 0.0487,12.99487 0.33295,15.33042 2.73882,22.5 9.60993,28.63803 34.00226,50.07858 62.08234,54.56959 8.97924,1.43611 26.27591,0.31207 35.12544,-2.28264 z"
       id="path16" />
    <path
       style="fill:#000000;stroke:#000000;stroke-width:0.1;stroke-dasharray:none"
       d="m 387.76705,681.6984 c 3.01852,-3.95748 17.41382,-20.27433 25.74073,-29.1767 5.03753,-5.38567 5.03753,-5.38567 7.48323,-2.5 1.34514,1.58712 6.23097,6.8495 10.85741,11.69417 8.30214,8.69378 8.43395,8.78155 10.11937,6.73913 9.40191,-11.3934 41.94053,-47.94096 42.72361,-47.98739 0.55877,-0.0331 4.92483,4.32726 9.70235,9.68976 4.77752,5.3625 11.69275,13.125 15.36718,17.25 3.67443,4.125 9.35382,10.30787 12.62088,13.7397 5.9401,6.2397 5.9401,6.2397 8.61687,3.03632 1.47223,-1.76186 7.73928,-8.96008 13.92678,-15.99605 6.1875,-7.03597 11.25,-13.21417 11.25,-13.72932 0,-1.05325 -7.03781,-8.97603 -20.47591,-23.05065 -4.98871,-5.225 -19.80004,-21.0875 -32.91408,-35.25 -13.11404,-14.1625 -24.18674,-25.75 -24.606,-25.75 -0.41926,0 -10.1275,10.57281 -21.57387,23.49514 -23.89839,26.98 -19.99665,25.51293 -31.60083,11.88202 -3.45416,-4.05744 -6.57834,-7.37716 -6.94264,-7.37716 -0.36429,0 -8.25032,8.75054 -17.52451,19.44563 -9.27419,10.6951 -17.18632,19.4701 -17.58252,19.5 -0.39619,0.0299 -9.35174,-9.63545 -19.90121,-21.47856 -10.54946,-11.84311 -19.61757,-21.38736 -20.15135,-21.20943 -0.53377,0.17792 -6.45302,6.38024 -13.15389,13.78293 -6.70086,7.40269 -12.81631,13.45943 -13.58989,13.45943 -0.77357,0 -8.39877,-8.12785 -16.9449,-18.06188 -27.0524,-31.44579 -28.3528,-32.93216 -29.06991,-33.22714 -0.59705,-0.2456 -19.49105,19.58261 -69.24869,72.67264 -5.3791,5.73936 -9.6541,10.79521 -9.5,11.23522 0.52144,1.48879 26.99571,31.88116 27.77114,31.88116 0.42318,0 9.32648,-9.1125 19.7851,-20.25 10.45863,-11.1375 20.44779,-21.6 22.19814,-23.25 3.18246,-3 3.18246,-3 5.17276,-0.5 1.09466,1.375 5.23885,6.325 9.20929,11 3.97045,4.675 12.56308,14.8 19.09474,22.5 6.53166,7.7 12.4541,14.6358 13.16098,15.41288 1.08276,1.19029 2.76053,-0.07 10.64985,-8 5.15054,-5.17708 12.99565,-12.92682 17.43358,-17.22163 8.06896,-7.80875 8.06896,-7.80875 22.36101,9.5 18.57523,22.49602 24.93139,29.80875 25.90948,29.80875 0.43822,0 2.06979,-1.66904 3.62572,-3.70897 z"
       id="path15" />
  </g>
</svg>
